<?xml version="1.0"?>
<svg xmlns="http://www.w3.org/2000/svg" viewBox="0 0 50 50">
    <path d="M 21.900391 2 C 19.277391 2 18.218156 5.4559062 17.285156 8.5039062 C 17.167156 8.8899062 17.051547 9.2689063 16.935547 9.6289062 C 14.883547 10.080906 11.199219 11.411 11.199219 13 C 11.199219 14.318514 13.426119 14.813648 16.294922 14.982422 C 16.543332 15.793813 16.919156 16.891921 17.533203 18 L 32.466797 18 C 33.07872 16.895755 33.454169 15.800321 33.703125 14.988281 C 36.66507 14.830521 39 14.348115 39 13 C 39 12.945 38.996328 12.889938 38.986328 12.835938 C 38.753328 11.438938 35.378844 10.116672 33.214844 9.6386719 C 32.354844 6.2336719 31.124219 2 28.199219 2 C 27.171219 2 26.486328 2.6307969 25.986328 3.0917969 C 25.131328 3.8777969 24.847719 3.8662187 24.011719 3.0742188 C 23.505719 2.5952187 22.875391 2 21.900391 2 z M 19.199219 15.5 C 20.699219 15.7 22.900391 16.199219 22.900391 16.699219 C 22.900391 17.099219 22.200781 17.700781 21.300781 17.800781 C 19.500781 18.200781 19.199219 16 19.199219 15.5 z M 30.800781 15.5 C 30.800781 16 30.499219 18.200781 28.699219 17.800781 C 27.799219 17.700781 27.099609 17.099219 27.099609 16.699219 C 27.099609 16.199219 29.300781 15.7 30.800781 15.5 z M 8 20 C 6.841 20 6 20.841 6 22 L 6 41 C 6 42.159 6.841 43 8 43 L 19.130859 43 L 20.003906 32.914062 C 20.050906 32.365063 20.535891 31.944906 21.087891 32.003906 C 21.625891 32.049906 22.018187 32.515781 21.992188 33.050781 L 21.013672 44.386719 C 20.871672 45.275719 19.968 46 19 46 L 18 46 C 17.912 46 17.859313 46.014156 17.820312 46.035156 C 17.357312 46.122156 17 46.511 17 47 C 17 47.489 17.357312 47.877844 17.820312 47.964844 C 17.859312 47.985844 17.912 48 18 48 L 19 48 L 31 48 L 32 48 C 32.088 48 32.140687 47.985844 32.179688 47.964844 C 32.642688 47.877844 33 47.489 33 47 C 33 46.511 32.642688 46.122156 32.179688 46.035156 C 32.140687 46.014156 32.088 46 32 46 L 31 46 C 30.032 46 29.129094 45.275031 28.996094 44.457031 L 28.007812 33.050781 C 27.980812 32.515781 28.376063 32.050906 28.914062 32.003906 C 29.465062 31.945906 29.948094 32.364063 29.996094 32.914062 L 30.869141 43 L 42 43 C 43.159 43 44 42.159 44 41 L 44 22 C 44 20.841 43.159 20 42 20 L 8 20 z"/>
</svg>
